<?xml version="1.0" encoding="utf-8"?>
<!-- Generator: Adobe Illustrator 23.0.0, SVG Export Plug-In . SVG Version: 6.00 Build 0)  -->
<svg version="1.1" id="Layer_1" xmlns="http://www.w3.org/2000/svg" xmlns:xlink="http://www.w3.org/1999/xlink" x="0px" y="0px"
	 viewBox="0 0 269.9 76.1" style="enable-background:new 0 0 269.9 76.1;" xml:space="preserve">
<style type="text/css">
	.st0{fill:#FFFFFF;}
</style>
<g>
	<path class="st0" d="M137.4,57.4h-4.2l-4.5,5.2v-5.2h-3.6v6.4c0-3.7-3-6.6-6.9-6.6c-3.1,0-5.6,1.8-6.5,4.4c-0.1-1.1-0.4-2-1.1-2.7
		c-0.9-0.9-2.2-1.4-4.2-1.4h-6.1v12.9h3.6v-3.9h1.6l2.6,3.9h4.1l-3.1-4.5c1-0.4,1.7-1.1,2.2-2v0c0,3.7,3,6.7,6.9,6.7c4,0,7-3,7-6.7
		v6.4h3.6v-3.4l1.3-1.4l3.3,4.8h4.3l-5.1-7.4L137.4,57.4z M108.1,62c0,0.9-0.7,1.5-1.9,1.5h-2.4v-3.1h2.4
		C107.4,60.4,108.1,61,108.1,62L108.1,62z M121.5,63.9c0,1.9-1.3,3.5-3.3,3.5c-2,0-3.3-1.6-3.3-3.5v0c0-1.9,1.3-3.5,3.3-3.5
		S121.5,61.9,121.5,63.9L121.5,63.9z"/>
	<path class="st0" d="M142.3,57.1c-4,0-7,3-7,6.7v0c0,3.7,3,6.7,6.9,6.7c4,0,7-3,7-6.7v0C149.3,60.1,146.3,57.1,142.3,57.1z
		 M145.6,63.9c0,1.9-1.3,3.5-3.3,3.5c-2,0-3.3-1.6-3.3-3.5v0c0-1.9,1.3-3.5,3.3-3.5C144.3,60.3,145.6,61.9,145.6,63.9L145.6,63.9z"
		/>
	<polygon class="st0" points="154.3,65.5 151.4,57.4 147.4,57.4 152.6,70.4 156,70.4 161.2,57.4 157.3,57.4 	"/>
	<path class="st0" d="M66.8,68.5c-16.8,0-29-13.7-29-30.4v-0.2c0-16.7,12-30.2,28.8-30.2c6.2,0,11.8,1.9,16.3,5h12.2
		C88.6,5,78.8,0,66.8,0C49.8,0,37,10.2,31.7,24c-2.9-2.9-7.3-4.6-12.4-4.6c-9,0-13.8,3.8-18.6,10.5l6.3,5c3.8-5,7-7.6,11.6-7.6
		s8.1,2.9,8.1,7.8c0,4.5-2.5,7.7-9.4,13.6L0,63.6v7h36.4v-7.8h-24l10.4-8.6c3-2.5,5.5-4.6,7.4-6.6c3.8,16.1,17.5,28.6,36.4,28.6
		c14.7,0,26.4-7.7,32.6-18.8h-9.8C84.3,64.1,76.3,68.5,66.8,68.5z"/>
	<path class="st0" d="M124.6,38.2c3.6,0.9,4.5,1.4,4.5,2.6v0.1c0,1.1-1.1,1.8-3.1,1.8c-3.1,0-5.9-1.1-8.6-3.2l-4.1,4.9
		c3.3,2.9,7.7,4.4,12.4,4.4c6.4,0,10.7-3.2,10.7-8.6V40c0-5-3.8-6.9-9.8-8.2c-3.7-0.8-4.6-1.4-4.6-2.6v-0.1c0-1,0.9-1.7,2.6-1.7
		c2.3,0,5,0.9,7.4,2.6l3.7-5.2c-2.9-2.3-6.4-3.5-10.9-3.5c-6.4,0-10.2,3.6-10.2,8.5v0.1C114.6,35.3,119,36.9,124.6,38.2z"/>
	<polygon class="st0" points="84.3,48.3 84.3,28.2 92.2,28.2 92.2,21.8 69.1,21.8 69.1,28.2 77,28.2 77,48.3 	"/>
	<path class="st0" d="M92.2,29.8L92.2,29.8c0,5.5,4.3,7.1,10,8.4c3.6,0.9,4.5,1.4,4.5,2.6v0.1c0,1.1-1.1,1.8-3.1,1.8
		c-3.1,0-5.9-1.1-8.6-3.2L91,44.3c3.3,2.9,7.7,4.4,12.4,4.4c6.4,0,10.7-3.2,10.7-8.6V40c0-5-3.8-6.9-9.8-8.2
		c-3.7-0.8-4.6-1.4-4.6-2.6v-0.1c0-1,0.9-1.7,2.6-1.7c2.3,0,5,0.9,7.4,2.6l3.7-5.2c-2.9-2.3-6.4-3.5-10.9-3.5
		C96.1,21.4,92.2,24.9,92.2,29.8z"/>
	<path class="st0" d="M258.9,21.8h-11.4v26.5h7.3v-7.6h3.7c6.5,0,11.3-3.3,11.3-9.6v-0.1C269.9,25.3,265.6,21.8,258.9,21.8z
		 M262.6,31.5c0,2.1-1.6,3.5-4.2,3.5h-3.5v-7h3.5C260.9,28,262.6,29.1,262.6,31.5L262.6,31.5z"/>
	<path class="st0" d="M158.9,38.2h5.2v3.2c-1.1,0.7-2.4,1.1-4.2,1.1c-4.2,0-7.2-3.1-7.2-7.4V35c0-4,2.9-7.2,6.8-7.2
		c2.6,0,4.5,0.9,6.4,2.5l4.3-5.2c-2.8-2.4-6.1-3.8-10.7-3.8c-8.2,0-14.2,6-14.2,13.8v0.1c0,8,6.1,13.7,14.4,13.7
		c4.8,0,8.7-1.8,11.5-4.1V32.8h-12.1V38.2z"/>
	<path class="st0" d="M239,36.7c0,3.7-1.9,5.4-4.9,5.4c-2.9,0-4.9-1.8-4.9-5.6V21.8h-7.4v7.8c-2.1-4.9-7-8.4-13.1-8.4
		c-5.7,0-10.5,3.1-12.8,7.5c-0.3-1.7-1-3-2.2-4.1c-1.8-1.8-4.6-2.8-8.6-2.8h-12.5v26.5h7.3v-8h3.3l5.3,8h8.4l-6.3-9.2
		c1.6-0.7,2.8-1.6,3.8-2.9c0.5,7.1,6.4,12.6,14.2,12.6c6.4,0,11.5-3.8,13.5-9.1c1,6.2,5.5,9.1,12,9.1c7.5,0,12.4-3.8,12.4-12.3V21.8
		H239V36.7z M188.7,31.4c0,1.9-1.5,3.1-3.9,3.1h-4.9v-6.4h4.8C187.2,28.1,188.7,29.2,188.7,31.4L188.7,31.4z M215.3,35.1
		c0,3.8-2.7,7.1-6.7,7.1c-4,0-6.8-3.3-6.8-7.1V35c0-3.8,2.7-7.1,6.7-7.1S215.3,31.2,215.3,35.1L215.3,35.1z"/>
	<path class="st0" d="M61.5,25.7c-2.3,0-4.2,1.9-4.2,4.2c0,2.3,1.9,4.2,4.2,4.2c2.3,0,4.2-1.9,4.2-4.2
		C65.7,27.6,63.8,25.7,61.5,25.7z"/>
	<path class="st0" d="M61.5,35.9c-2.3,0-4.2,1.9-4.2,4.2c0,2.3,1.9,4.2,4.2,4.2c2.3,0,4.2-1.9,4.2-4.2
		C65.7,37.8,63.8,35.9,61.5,35.9z"/>
</g>
</svg>
